<?xml version="1.0" standalone="no"?>
<!DOCTYPE svg PUBLIC "-//W3C//DTD SVG 20010904//EN"
 "http://www.w3.org/TR/2001/REC-SVG-20010904/DTD/svg10.dtd">
<svg version="1.0" xmlns="http://www.w3.org/2000/svg"
 width="1500.000000pt" height="882.000000pt" viewBox="0 0 1500.000000 882.000000"
 preserveAspectRatio="xMidYMid meet">
<g transform="translate(0.000000,882.000000) scale(0.100000,-0.100000)"
stroke="none">
<path d="M5175 6152 c-256 -194 -1747 -1318 -2032 -1531 -100 -75 -182 -138
-182 -141 0 -3 100 -80 222 -171 326 -244 1993 -1500 2159 -1626 32 -25 62
-42 66 -38 4 4 7 199 8 433 l1 427 1520 5 1520 5 -156 131 c-86 73 -295 249
-466 393 -170 144 -377 319 -460 389 -82 69 -222 187 -310 261 -88 75 -241
204 -340 287 -99 84 -265 224 -370 313 l-190 161 -372 0 c-205 0 -373 3 -373
8 0 4 -1 200 -2 435 -1 235 -4 429 -7 431 -3 1 -109 -76 -236 -172z m468 -912
l442 -1 126 -107 c69 -59 278 -235 464 -392 187 -157 387 -325 445 -375 58
-49 186 -157 284 -240 99 -82 216 -181 261 -220 45 -38 112 -95 148 -125 l66
-55 -1339 -3 -1340 -2 -2 -330 -3 -330 -135 102 c-121 91 -563 423 -1447 1090
l-302 227 37 29 c20 16 165 125 322 243 1063 801 1270 957 1390 1047 l135 102
3 -330 2 -330 443 0z" fill="#FFFFFF" />
<path d="M9585 5888 l0 -433 -1498 -5 -1498 -5 1158 -965 1157 -965 341 -5
340 -5 3 -33 c2 -19 -2 -48 -8 -65 -7 -22 -7 -33 0 -35 7 -3 10 -120 10 -365
0 -199 0 -366 0 -371 0 -5 10 0 23 11 12 11 261 199 552 419 292 219 784 590
1095 824 311 234 613 461 672 505 59 44 107 82 107 85 0 3 -84 68 -187 145
-191 143 -736 554 -1705 1284 -301 226 -550 411 -554 411 -4 0 -8 -195 -8
-432z" fill="#000000"/>
</g>
</svg>
